<mxfile host="app.diagrams.net" agent="Mozilla/5.0 (Windows NT 10.0; Win64; x64) AppleWebKit/537.36 (KHTML, like Gecko) Chrome/133.0.0.0 Safari/537.36" version="26.0.11">
  <diagram name="Page-1" id="a7904f86-f2b4-8e86-fa97-74104820619b">
    <mxGraphModel dx="2333" dy="1291" grid="1" gridSize="10" guides="1" tooltips="1" connect="1" arrows="1" fold="1" page="1" pageScale="1" pageWidth="1100" pageHeight="850" background="none" math="0" shadow="0">
      <root>
        <mxCell id="0" />
        <mxCell id="1" parent="0" />
        <mxCell id="24794b860abc3c2d-1" value="&lt;p style=&quot;margin: 4px 0px 0px; text-align: center;&quot;&gt;&lt;b style=&quot;&quot;&gt;&lt;i&gt;cat_unidades&lt;/i&gt;&lt;/b&gt;&lt;/p&gt;&lt;hr&gt;&lt;p style=&quot;margin: 0px ; margin-left: 8px&quot;&gt;id_unidad SERIAL NN&lt;/p&gt;&lt;p style=&quot;margin: 0px ; margin-left: 8px&quot;&gt;descripcion VARCHAR(20) NN&lt;br&gt;&lt;br&gt;&lt;/p&gt;" style="verticalAlign=top;align=left;overflow=fill;fontSize=12;fontFamily=Helvetica;html=1;rounded=0;shadow=0;comic=0;labelBackgroundColor=none;strokeWidth=1" parent="1" vertex="1">
          <mxGeometry x="10" y="200" width="180" height="85" as="geometry" />
        </mxCell>
        <mxCell id="24794b860abc3c2d-17" value="&lt;p style=&quot;margin: 4px 0px 0px; text-align: center;&quot;&gt;&lt;b&gt;&lt;i&gt;cat_tipos&lt;/i&gt;&lt;/b&gt;&lt;/p&gt;&lt;hr&gt;&lt;p style=&quot;margin: 0px 0px 0px 8px;&quot;&gt;id_tipo SERIAL NN&lt;/p&gt;&lt;p style=&quot;margin: 0px 0px 0px 8px;&quot;&gt;descripcion VARCHAR(50) NN&lt;/p&gt;" style="verticalAlign=top;align=left;overflow=fill;fontSize=12;fontFamily=Helvetica;html=1;rounded=0;shadow=0;comic=0;labelBackgroundColor=none;strokeWidth=1" parent="1" vertex="1">
          <mxGeometry x="220" y="200" width="180" height="85" as="geometry" />
        </mxCell>
        <mxCell id="UsefbIZ3uV5enhDmJJH_-2" value="&lt;p style=&quot;margin: 4px 0px 0px; text-align: center;&quot;&gt;&lt;b&gt;&lt;i&gt;cat_bloqueos&lt;/i&gt;&lt;/b&gt;&lt;/p&gt;&lt;hr&gt;&lt;p style=&quot;margin: 0px 0px 0px 8px;&quot;&gt;id_bloqueo SERIAL NN&lt;/p&gt;&lt;p style=&quot;margin: 0px 0px 0px 8px;&quot;&gt;descripcion VARCHAR(255) NN&lt;/p&gt;&lt;p style=&quot;margin: 0px 0px 0px 8px;&quot;&gt;area_responsable VARCHAR(?) NN&lt;/p&gt;" style="verticalAlign=top;align=left;overflow=fill;fontSize=12;fontFamily=Helvetica;html=1;rounded=0;shadow=0;comic=0;labelBackgroundColor=none;strokeWidth=1" vertex="1" parent="1">
          <mxGeometry x="430" y="200" width="210" height="85" as="geometry" />
        </mxCell>
        <mxCell id="UsefbIZ3uV5enhDmJJH_-3" value="&lt;p style=&quot;margin: 4px 0px 0px; text-align: center;&quot;&gt;&lt;b&gt;&lt;i&gt;cat_marcas&lt;/i&gt;&lt;/b&gt;&lt;/p&gt;&lt;hr&gt;&lt;p style=&quot;margin: 0px 0px 0px 8px;&quot;&gt;id_marca SERIAL NN&lt;/p&gt;&lt;p style=&quot;margin: 0px 0px 0px 8px;&quot;&gt;descripcion VARCHAR(50) NN&lt;/p&gt;" style="verticalAlign=top;align=left;overflow=fill;fontSize=12;fontFamily=Helvetica;html=1;rounded=0;shadow=0;comic=0;labelBackgroundColor=none;strokeWidth=1" vertex="1" parent="1">
          <mxGeometry x="670" y="200" width="180" height="85" as="geometry" />
        </mxCell>
        <mxCell id="UsefbIZ3uV5enhDmJJH_-425" value="&lt;p style=&quot;margin: 4px 0px 0px; text-align: center;&quot;&gt;&lt;b&gt;&lt;i&gt;cat_tramites&lt;/i&gt;&lt;/b&gt;&lt;/p&gt;&lt;hr&gt;&lt;p style=&quot;margin: 0px 0px 0px 8px;&quot;&gt;id_tramite SERIAL NN&lt;/p&gt;&lt;p style=&quot;margin: 0px 0px 0px 8px;&quot;&gt;&lt;span style=&quot;background-color: light-dark(rgb(255, 255, 102), rgb(255, 255, 255));&quot;&gt;clave_tramite&lt;/span&gt; VARCHAR(4) NN&lt;/p&gt;&lt;p style=&quot;margin: 0px 0px 0px 8px;&quot;&gt;descripcion VARCHAR(70) NN&lt;/p&gt;&lt;p style=&quot;margin: 0px 0px 0px 8px;&quot;&gt;&lt;span style=&quot;background-color: light-dark(rgb(255, 255, 102), rgb(255, 255, 255));&quot;&gt;estatus&lt;/span&gt; BOLEAN(default = true)&lt;/p&gt;" style="verticalAlign=top;align=left;overflow=fill;fontSize=12;fontFamily=Helvetica;html=1;rounded=0;shadow=0;comic=0;labelBackgroundColor=none;strokeWidth=1" vertex="1" parent="1">
          <mxGeometry x="880" y="200" width="210" height="95" as="geometry" />
        </mxCell>
        <mxCell id="UsefbIZ3uV5enhDmJJH_-426" value="&lt;p style=&quot;margin: 4px 0px 0px; text-align: center;&quot;&gt;&lt;b&gt;&lt;i&gt;cat_organizaciones&lt;/i&gt;&lt;/b&gt;&lt;/p&gt;&lt;hr&gt;&lt;p style=&quot;margin: 0px 0px 0px 8px;&quot;&gt;id_organizacion SERIAL NN&lt;/p&gt;&lt;p style=&quot;margin: 0px 0px 0px 8px;&quot;&gt;descripcion VARCHAR(70) NN&lt;/p&gt;&lt;p style=&quot;margin: 0px 0px 0px 8px;&quot;&gt;&lt;span style=&quot;background-color: light-dark(rgb(255, 255, 102), rgb(255, 255, 255));&quot;&gt;estatus&lt;/span&gt; BOLEAN(default = false)&lt;/p&gt;" style="verticalAlign=top;align=left;overflow=fill;fontSize=12;fontFamily=Helvetica;html=1;rounded=0;shadow=0;comic=0;labelBackgroundColor=none;strokeWidth=1" vertex="1" parent="1">
          <mxGeometry x="1120" y="200" width="210" height="95" as="geometry" />
        </mxCell>
        <mxCell id="UsefbIZ3uV5enhDmJJH_-429" value="" style="edgeStyle=orthogonalEdgeStyle;rounded=0;orthogonalLoop=1;jettySize=auto;html=1;" edge="1" parent="1" source="UsefbIZ3uV5enhDmJJH_-427" target="UsefbIZ3uV5enhDmJJH_-428">
          <mxGeometry relative="1" as="geometry" />
        </mxCell>
        <mxCell id="UsefbIZ3uV5enhDmJJH_-427" value="&lt;p style=&quot;margin: 4px 0px 0px; text-align: center;&quot;&gt;&lt;b&gt;&lt;i&gt;cat_regiones&lt;/i&gt;&lt;/b&gt;&lt;/p&gt;&lt;hr&gt;&lt;p style=&quot;margin: 0px 0px 0px 8px;&quot;&gt;id_region SERIAL NN&lt;/p&gt;&lt;p style=&quot;margin: 0px 0px 0px 8px;&quot;&gt;nombre_region VARCHAR(100) NN&lt;/p&gt;&lt;p style=&quot;margin: 0px 0px 0px 8px;&quot;&gt;&lt;span style=&quot;background-color: light-dark(rgb(255, 255, 102), rgb(255, 255, 255));&quot;&gt;clave&lt;/span&gt;&amp;nbsp;&lt;span style=&quot;background-color: transparent; color: light-dark(rgb(0, 0, 0), rgb(255, 255, 255));&quot;&gt;VARCHAR(1) NN&lt;/span&gt;&lt;/p&gt;" style="verticalAlign=top;align=left;overflow=fill;fontSize=12;fontFamily=Helvetica;html=1;rounded=0;shadow=0;comic=0;labelBackgroundColor=none;strokeWidth=1" vertex="1" parent="1">
          <mxGeometry x="1360" y="200" width="210" height="95" as="geometry" />
        </mxCell>
        <mxCell id="UsefbIZ3uV5enhDmJJH_-436" value="" style="edgeStyle=orthogonalEdgeStyle;rounded=0;orthogonalLoop=1;jettySize=auto;html=1;" edge="1" parent="1" source="UsefbIZ3uV5enhDmJJH_-428" target="UsefbIZ3uV5enhDmJJH_-433">
          <mxGeometry relative="1" as="geometry" />
        </mxCell>
        <mxCell id="UsefbIZ3uV5enhDmJJH_-428" value="&lt;p style=&quot;margin: 4px 0px 0px; text-align: center;&quot;&gt;&lt;b&gt;&lt;i&gt;cat_distritos&lt;/i&gt;&lt;/b&gt;&lt;/p&gt;&lt;hr&gt;&lt;p style=&quot;margin: 0px 0px 0px 8px;&quot;&gt;id_distrito SERIAL NN&lt;/p&gt;&lt;p style=&quot;margin: 0px 0px 0px 8px;&quot;&gt;&lt;span style=&quot;background-color: light-dark(rgb(255, 255, 51), rgb(255, 255, 255));&quot;&gt;nombre_region&lt;/span&gt; VARCHAR(50) NN&lt;/p&gt;&lt;p style=&quot;margin: 0px 0px 0px 8px;&quot;&gt;clave INT&lt;span style=&quot;background-color: transparent; color: light-dark(rgb(0, 0, 0), rgb(255, 255, 255));&quot;&gt;&amp;nbsp;NN&lt;/span&gt;&lt;/p&gt;&lt;p style=&quot;margin: 0px 0px 0px 8px;&quot;&gt;id_region FK INT NN&lt;/p&gt;" style="verticalAlign=top;align=left;overflow=fill;fontSize=12;fontFamily=Helvetica;html=1;rounded=0;shadow=0;comic=0;labelBackgroundColor=none;strokeWidth=1" vertex="1" parent="1">
          <mxGeometry x="1360" y="350" width="210" height="95" as="geometry" />
        </mxCell>
        <mxCell id="UsefbIZ3uV5enhDmJJH_-452" style="edgeStyle=orthogonalEdgeStyle;rounded=0;orthogonalLoop=1;jettySize=auto;html=1;" edge="1" parent="1" source="UsefbIZ3uV5enhDmJJH_-430" target="UsefbIZ3uV5enhDmJJH_-425">
          <mxGeometry relative="1" as="geometry" />
        </mxCell>
        <mxCell id="UsefbIZ3uV5enhDmJJH_-430" value="como es una clave tramite?&lt;div&gt;estatus default true?&lt;/div&gt;&lt;div&gt;estatus --&amp;gt; tramiteActivo&lt;/div&gt;" style="ellipse;shape=cloud;whiteSpace=wrap;html=1;" vertex="1" parent="1">
          <mxGeometry x="880" width="215" height="140" as="geometry" />
        </mxCell>
        <mxCell id="UsefbIZ3uV5enhDmJJH_-451" style="edgeStyle=orthogonalEdgeStyle;rounded=0;orthogonalLoop=1;jettySize=auto;html=1;entryX=0.5;entryY=0;entryDx=0;entryDy=0;" edge="1" parent="1" source="UsefbIZ3uV5enhDmJJH_-431" target="UsefbIZ3uV5enhDmJJH_-427">
          <mxGeometry relative="1" as="geometry" />
        </mxCell>
        <mxCell id="UsefbIZ3uV5enhDmJJH_-431" value="clave --&amp;gt; clave_region&lt;div&gt;clave varchar(1)?&lt;/div&gt;" style="ellipse;shape=cloud;whiteSpace=wrap;html=1;" vertex="1" parent="1">
          <mxGeometry x="1362.5" y="20" width="215" height="140" as="geometry" />
        </mxCell>
        <mxCell id="UsefbIZ3uV5enhDmJJH_-450" style="edgeStyle=orthogonalEdgeStyle;rounded=0;orthogonalLoop=1;jettySize=auto;html=1;entryX=0;entryY=0.5;entryDx=0;entryDy=0;" edge="1" parent="1" source="UsefbIZ3uV5enhDmJJH_-432" target="UsefbIZ3uV5enhDmJJH_-428">
          <mxGeometry relative="1" as="geometry" />
        </mxCell>
        <mxCell id="UsefbIZ3uV5enhDmJJH_-432" value="nombre_region --&amp;gt; nombre_distrito&lt;div&gt;clave INT?&lt;/div&gt;" style="ellipse;shape=cloud;whiteSpace=wrap;html=1;" vertex="1" parent="1">
          <mxGeometry x="1040" y="380" width="255" height="155" as="geometry" />
        </mxCell>
        <mxCell id="UsefbIZ3uV5enhDmJJH_-447" style="edgeStyle=orthogonalEdgeStyle;rounded=0;orthogonalLoop=1;jettySize=auto;html=1;entryX=0;entryY=0.5;entryDx=0;entryDy=0;" edge="1" parent="1" source="UsefbIZ3uV5enhDmJJH_-433" target="UsefbIZ3uV5enhDmJJH_-438">
          <mxGeometry relative="1" as="geometry" />
        </mxCell>
        <mxCell id="UsefbIZ3uV5enhDmJJH_-455" style="edgeStyle=orthogonalEdgeStyle;rounded=0;orthogonalLoop=1;jettySize=auto;html=1;entryX=0.5;entryY=0;entryDx=0;entryDy=0;" edge="1" parent="1" source="UsefbIZ3uV5enhDmJJH_-433" target="UsefbIZ3uV5enhDmJJH_-454">
          <mxGeometry relative="1" as="geometry" />
        </mxCell>
        <mxCell id="UsefbIZ3uV5enhDmJJH_-433" value="&lt;p style=&quot;margin: 4px 0px 0px; text-align: center;&quot;&gt;&lt;b&gt;&lt;i&gt;cat_municipios&lt;/i&gt;&lt;/b&gt;&lt;/p&gt;&lt;hr&gt;&lt;p style=&quot;margin: 0px 0px 0px 8px;&quot;&gt;id_municipio SERIAL NN&lt;/p&gt;&lt;p style=&quot;margin: 0px 0px 0px 8px;&quot;&gt;nombre_municipio VARCHAR(50) NN&lt;/p&gt;&lt;p style=&quot;margin: 0px 0px 0px 8px;&quot;&gt;id_distrito FK INT NN&lt;/p&gt;" style="verticalAlign=top;align=left;overflow=fill;fontSize=12;fontFamily=Helvetica;html=1;rounded=0;shadow=0;comic=0;labelBackgroundColor=none;strokeWidth=1" vertex="1" parent="1">
          <mxGeometry x="1360" y="490" width="220" height="80" as="geometry" />
        </mxCell>
        <mxCell id="UsefbIZ3uV5enhDmJJH_-437" style="edgeStyle=orthogonalEdgeStyle;rounded=0;orthogonalLoop=1;jettySize=auto;html=1;exitX=0.5;exitY=1;exitDx=0;exitDy=0;" edge="1" parent="1" source="UsefbIZ3uV5enhDmJJH_-433" target="UsefbIZ3uV5enhDmJJH_-433">
          <mxGeometry relative="1" as="geometry" />
        </mxCell>
        <mxCell id="UsefbIZ3uV5enhDmJJH_-438" value="&lt;p style=&quot;margin: 4px 0px 0px; text-align: center;&quot;&gt;&lt;b&gt;&lt;i&gt;cat_clave_numero_economico&lt;/i&gt;&lt;/b&gt;&lt;/p&gt;&lt;hr&gt;&lt;p style=&quot;margin: 0px 0px 0px 8px;&quot;&gt;&lt;span style=&quot;background-color: light-dark(rgb(255, 51, 153), rgb(255, 255, 255));&quot;&gt;id_numero_economico&lt;/span&gt; SERIAL NN&lt;/p&gt;&lt;p style=&quot;margin: 0px 0px 0px 8px;&quot;&gt;&lt;span style=&quot;background-color: light-dark(rgb(255, 51, 153), rgb(255, 255, 255));&quot;&gt;clave_division_territorial&lt;/span&gt; VARCHAR(5) NN&lt;/p&gt;&lt;p style=&quot;margin: 0px 0px 0px 8px;&quot;&gt;clave_inegi VARCHAR(5) NN&lt;/p&gt;&lt;p style=&quot;margin: 0px 0px 0px 8px;&quot;&gt;&lt;span style=&quot;background-color: light-dark(rgb(255, 255, 102), rgb(255, 255, 255));&quot;&gt;clave_municipio&lt;/span&gt; VARCHAR(10) NN&lt;/p&gt;&lt;p style=&quot;margin: 0px 0px 0px 8px;&quot;&gt;id_municipio FK INT NN&lt;/p&gt;" style="verticalAlign=top;align=left;overflow=fill;fontSize=12;fontFamily=Helvetica;html=1;rounded=0;shadow=0;comic=0;labelBackgroundColor=none;strokeWidth=1" vertex="1" parent="1">
          <mxGeometry x="1640" y="490" width="240" height="110" as="geometry" />
        </mxCell>
        <mxCell id="UsefbIZ3uV5enhDmJJH_-440" style="edgeStyle=orthogonalEdgeStyle;rounded=0;orthogonalLoop=1;jettySize=auto;html=1;" edge="1" parent="1" source="UsefbIZ3uV5enhDmJJH_-439">
          <mxGeometry relative="1" as="geometry">
            <mxPoint x="99.99999999999989" y="180" as="targetPoint" />
          </mxGeometry>
        </mxCell>
        <mxCell id="UsefbIZ3uV5enhDmJJH_-441" style="edgeStyle=orthogonalEdgeStyle;rounded=0;orthogonalLoop=1;jettySize=auto;html=1;" edge="1" parent="1" source="UsefbIZ3uV5enhDmJJH_-439">
          <mxGeometry relative="1" as="geometry">
            <mxPoint x="310" y="180" as="targetPoint" />
          </mxGeometry>
        </mxCell>
        <mxCell id="UsefbIZ3uV5enhDmJJH_-442" style="edgeStyle=orthogonalEdgeStyle;rounded=0;orthogonalLoop=1;jettySize=auto;html=1;" edge="1" parent="1" source="UsefbIZ3uV5enhDmJJH_-439">
          <mxGeometry relative="1" as="geometry">
            <mxPoint x="550" y="180" as="targetPoint" />
          </mxGeometry>
        </mxCell>
        <mxCell id="UsefbIZ3uV5enhDmJJH_-443" style="edgeStyle=orthogonalEdgeStyle;rounded=0;orthogonalLoop=1;jettySize=auto;html=1;" edge="1" parent="1" source="UsefbIZ3uV5enhDmJJH_-439">
          <mxGeometry relative="1" as="geometry">
            <mxPoint x="770" y="180" as="targetPoint" />
          </mxGeometry>
        </mxCell>
        <mxCell id="UsefbIZ3uV5enhDmJJH_-444" style="edgeStyle=orthogonalEdgeStyle;rounded=0;orthogonalLoop=1;jettySize=auto;html=1;" edge="1" parent="1" source="UsefbIZ3uV5enhDmJJH_-439">
          <mxGeometry relative="1" as="geometry">
            <mxPoint x="1250" y="190" as="targetPoint" />
            <Array as="points">
              <mxPoint x="1250" y="10" />
            </Array>
          </mxGeometry>
        </mxCell>
        <mxCell id="UsefbIZ3uV5enhDmJJH_-439" value="que son?" style="ellipse;shape=cloud;whiteSpace=wrap;html=1;" vertex="1" parent="1">
          <mxGeometry x="330" y="10" width="170" height="110" as="geometry" />
        </mxCell>
        <mxCell id="UsefbIZ3uV5enhDmJJH_-453" style="edgeStyle=orthogonalEdgeStyle;rounded=0;orthogonalLoop=1;jettySize=auto;html=1;entryX=0.5;entryY=0;entryDx=0;entryDy=0;" edge="1" parent="1" source="UsefbIZ3uV5enhDmJJH_-446" target="UsefbIZ3uV5enhDmJJH_-438">
          <mxGeometry relative="1" as="geometry" />
        </mxCell>
        <mxCell id="UsefbIZ3uV5enhDmJJH_-446" value="&lt;span style=&quot;background-color: rgb(255, 51, 153);&quot;&gt;que es?&lt;/span&gt;&lt;div&gt;&lt;span&gt;clave_municipio --&amp;gt; pasarlo&lt;/span&gt;&lt;/div&gt;&lt;div&gt;&lt;span&gt;al cat_municipios&lt;/span&gt;&lt;/div&gt;" style="ellipse;shape=cloud;whiteSpace=wrap;html=1;" vertex="1" parent="1">
          <mxGeometry x="1632.5" y="295" width="255" height="155" as="geometry" />
        </mxCell>
        <mxCell id="UsefbIZ3uV5enhDmJJH_-454" value="&lt;p style=&quot;margin: 4px 0px 0px; text-align: center;&quot;&gt;&lt;b&gt;&lt;i&gt;cat_localidades&lt;/i&gt;&lt;/b&gt;&lt;/p&gt;&lt;hr&gt;&lt;p style=&quot;margin: 0px 0px 0px 8px;&quot;&gt;id_localidad SERIAL NN&lt;/p&gt;&lt;p style=&quot;margin: 0px 0px 0px 8px;&quot;&gt;nombre_localidad VARCHAR(255) NN&lt;/p&gt;&lt;p style=&quot;margin: 0px 0px 0px 8px;&quot;&gt;&lt;span style=&quot;background-color: light-dark(rgb(255, 255, 102), rgb(255, 255, 255));&quot;&gt;clave&lt;/span&gt; VARCHAR(4) AllowNull&lt;/p&gt;&lt;p style=&quot;margin: 0px 0px 0px 8px;&quot;&gt;id_municipio FK INT NN&lt;/p&gt;" style="verticalAlign=top;align=left;overflow=fill;fontSize=12;fontFamily=Helvetica;html=1;rounded=0;shadow=0;comic=0;labelBackgroundColor=none;strokeWidth=1" vertex="1" parent="1">
          <mxGeometry x="1360" y="640" width="220" height="90" as="geometry" />
        </mxCell>
        <mxCell id="UsefbIZ3uV5enhDmJJH_-456" value="clave --&amp;gt; clave_localidad" style="ellipse;shape=cloud;whiteSpace=wrap;html=1;" vertex="1" parent="1">
          <mxGeometry x="1135" y="610" width="180" height="120" as="geometry" />
        </mxCell>
        <mxCell id="UsefbIZ3uV5enhDmJJH_-457" value="&lt;p style=&quot;margin: 4px 0px 0px; text-align: center;&quot;&gt;&lt;b&gt;&lt;i&gt;cat_sitios&lt;/i&gt;&lt;/b&gt;&lt;/p&gt;&lt;hr&gt;&lt;p style=&quot;margin: 0px 0px 0px 8px;&quot;&gt;id_sitio SERIAL NN&lt;/p&gt;&lt;p style=&quot;margin: 0px 0px 0px 8px;&quot;&gt;&lt;span style=&quot;background-color: light-dark(rgb(255, 255, 102), rgb(255, 255, 255));&quot;&gt;clave&lt;/span&gt; INT AllowNull&lt;/p&gt;&lt;p style=&quot;margin: 0px 0px 0px 8px;&quot;&gt;&lt;span style=&quot;background-color: light-dark(rgb(255, 255, 102), rgb(255, 255, 255));&quot;&gt;lugar&lt;/span&gt; VARCHAR(255) AllowNull&lt;/p&gt;&lt;p style=&quot;margin: 0px 0px 0px 8px;&quot;&gt;nombre_sitio VARCHAR(255) AllowNull&lt;/p&gt;&lt;p style=&quot;margin: 0px 0px 0px 8px;&quot;&gt;&lt;span style=&quot;background-color: light-dark(rgb(255, 255, 102), rgb(255, 255, 255));&quot;&gt;representante_legal&lt;/span&gt; VARCHAR(100) AllowNull&lt;/p&gt;&lt;p style=&quot;margin: 0px 0px 0px 8px;&quot;&gt;&lt;span style=&quot;background-color: light-dark(rgb(255, 255, 102), rgb(255, 255, 255));&quot;&gt;domicilio&lt;/span&gt; VARCHAR(100) AllowNull&lt;/p&gt;&lt;p style=&quot;margin: 0px 0px 0px 8px;&quot;&gt;telefono_uno&amp;nbsp;&lt;span style=&quot;background-color: transparent; color: light-dark(rgb(0, 0, 0), rgb(255, 255, 255));&quot;&gt;VARCHAR(15) AllowNull&lt;/span&gt;&lt;/p&gt;&lt;p style=&quot;margin: 0px 0px 0px 8px;&quot;&gt;telefono_dos&amp;nbsp;&lt;span style=&quot;color: light-dark(rgb(0, 0, 0), rgb(255, 255, 255)); background-color: transparent;&quot;&gt;VARCHAR(15) AllowNull&lt;/span&gt;&lt;span style=&quot;background-color: transparent; color: light-dark(rgb(0, 0, 0), rgb(255, 255, 255));&quot;&gt;&lt;/span&gt;&lt;/p&gt;&lt;p style=&quot;margin: 0px 0px 0px 8px;&quot;&gt;&lt;span style=&quot;color: light-dark(rgb(0, 0, 0), rgb(255, 255, 255)); background-color: transparent;&quot;&gt;colores_sitio VARCHAR(50) AllowNull&lt;/span&gt;&lt;/p&gt;&lt;p style=&quot;margin: 0px 0px 0px 8px;&quot;&gt;&lt;span style=&quot;background-color: rgb(255, 255, 102);&quot;&gt;estado BOLEAN(default = false)&lt;/span&gt; NN&lt;/p&gt;&lt;p style=&quot;margin: 0px 0px 0px 8px;&quot;&gt;id_localidad FK INT NN&lt;/p&gt;" style="verticalAlign=top;align=left;overflow=fill;fontSize=12;fontFamily=Helvetica;html=1;rounded=0;shadow=0;comic=0;labelBackgroundColor=none;strokeWidth=1" vertex="1" parent="1">
          <mxGeometry x="1360" y="780" width="270" height="240" as="geometry" />
        </mxCell>
        <mxCell id="UsefbIZ3uV5enhDmJJH_-458" style="edgeStyle=orthogonalEdgeStyle;rounded=0;orthogonalLoop=1;jettySize=auto;html=1;entryX=-0.011;entryY=0.333;entryDx=0;entryDy=0;entryPerimeter=0;" edge="1" parent="1" source="UsefbIZ3uV5enhDmJJH_-456" target="UsefbIZ3uV5enhDmJJH_-454">
          <mxGeometry relative="1" as="geometry" />
        </mxCell>
        <mxCell id="UsefbIZ3uV5enhDmJJH_-461" style="edgeStyle=orthogonalEdgeStyle;rounded=0;orthogonalLoop=1;jettySize=auto;html=1;entryX=0;entryY=0.25;entryDx=0;entryDy=0;" edge="1" parent="1" source="UsefbIZ3uV5enhDmJJH_-460" target="UsefbIZ3uV5enhDmJJH_-457">
          <mxGeometry relative="1" as="geometry" />
        </mxCell>
        <mxCell id="UsefbIZ3uV5enhDmJJH_-460" value="clave --&amp;gt; clave_sitio&lt;div&gt;lugar es lo mismo que domicilio??&lt;/div&gt;&lt;div&gt;&amp;nbsp;--&amp;gt; direcciones_sitios(tabla)&lt;/div&gt;&lt;div&gt;representante_legal --&amp;gt; posibilidad de tabla&lt;/div&gt;&lt;div&gt;estado default false? --&amp;gt; sitioActivo(default = true)&lt;/div&gt;" style="ellipse;shape=cloud;whiteSpace=wrap;html=1;" vertex="1" parent="1">
          <mxGeometry x="980" y="730" width="325" height="170" as="geometry" />
        </mxCell>
        <mxCell id="UsefbIZ3uV5enhDmJJH_-463" style="edgeStyle=orthogonalEdgeStyle;rounded=0;orthogonalLoop=1;jettySize=auto;html=1;entryX=0.5;entryY=1;entryDx=0;entryDy=0;" edge="1" parent="1" source="UsefbIZ3uV5enhDmJJH_-462" target="UsefbIZ3uV5enhDmJJH_-426">
          <mxGeometry relative="1" as="geometry" />
        </mxCell>
        <mxCell id="UsefbIZ3uV5enhDmJJH_-462" value="estatus --&amp;gt; organizacionActiva" style="ellipse;shape=cloud;whiteSpace=wrap;html=1;" vertex="1" parent="1">
          <mxGeometry x="825" y="310" width="215" height="140" as="geometry" />
        </mxCell>
        <mxCell id="UsefbIZ3uV5enhDmJJH_-464" style="edgeStyle=orthogonalEdgeStyle;rounded=0;orthogonalLoop=1;jettySize=auto;html=1;" edge="1" parent="1" source="UsefbIZ3uV5enhDmJJH_-454">
          <mxGeometry relative="1" as="geometry">
            <mxPoint x="1490" y="778" as="targetPoint" />
          </mxGeometry>
        </mxCell>
      </root>
    </mxGraphModel>
  </diagram>
</mxfile>
